<mxfile host="app.diagrams.net" modified="2024-04-11T05:37:48.306Z" agent="Mozilla/5.0 (Macintosh; Intel Mac OS X 10_15_7) AppleWebKit/537.36 (KHTML, like Gecko) Chrome/123.0.0.0 Safari/537.36" etag="jMz2b9lOSBacwdL88_Y8" version="24.0.7" type="github">
  <diagram name="Page-1" id="rpXskTdR_856NKPqqqEg">
    <mxGraphModel dx="1194" dy="877" grid="1" gridSize="10" guides="1" tooltips="1" connect="1" arrows="1" fold="1" page="1" pageScale="1" pageWidth="850" pageHeight="1100" math="0" shadow="0">
      <root>
        <mxCell id="0" />
        <mxCell id="1" parent="0" />
        <mxCell id="hu-sAR_U4PtlPBGoUDsY-1" value="BrightFlag" style="rounded=0;whiteSpace=wrap;html=1;" vertex="1" parent="1">
          <mxGeometry x="10" y="80" width="80" height="60" as="geometry" />
        </mxCell>
        <mxCell id="hu-sAR_U4PtlPBGoUDsY-2" value="Yooz" style="rounded=0;whiteSpace=wrap;html=1;" vertex="1" parent="1">
          <mxGeometry x="10" y="240" width="80" height="60" as="geometry" />
        </mxCell>
        <mxCell id="hu-sAR_U4PtlPBGoUDsY-3" value="" style="shape=cylinder3;whiteSpace=wrap;html=1;boundedLbl=1;backgroundOutline=1;size=15;" vertex="1" parent="1">
          <mxGeometry x="370" y="62.5" width="120" height="95" as="geometry" />
        </mxCell>
        <mxCell id="hu-sAR_U4PtlPBGoUDsY-4" value="" style="shape=cylinder3;whiteSpace=wrap;html=1;boundedLbl=1;backgroundOutline=1;size=15;" vertex="1" parent="1">
          <mxGeometry x="370" y="222.5" width="120" height="95" as="geometry" />
        </mxCell>
        <mxCell id="hu-sAR_U4PtlPBGoUDsY-5" value="Data Loader" style="rounded=0;whiteSpace=wrap;html=1;" vertex="1" parent="1">
          <mxGeometry x="130" y="80" width="80" height="60" as="geometry" />
        </mxCell>
        <mxCell id="hu-sAR_U4PtlPBGoUDsY-6" value="Data Loader" style="rounded=0;whiteSpace=wrap;html=1;" vertex="1" parent="1">
          <mxGeometry x="130" y="240" width="80" height="60" as="geometry" />
        </mxCell>
        <mxCell id="hu-sAR_U4PtlPBGoUDsY-7" value="Data Pipeline" style="rounded=0;whiteSpace=wrap;html=1;" vertex="1" parent="1">
          <mxGeometry x="250" y="80" width="80" height="60" as="geometry" />
        </mxCell>
        <mxCell id="hu-sAR_U4PtlPBGoUDsY-8" value="Data Pipeline" style="rounded=0;whiteSpace=wrap;html=1;" vertex="1" parent="1">
          <mxGeometry x="250" y="240" width="80" height="60" as="geometry" />
        </mxCell>
      </root>
    </mxGraphModel>
  </diagram>
</mxfile>
